#Comment line ignore any data following # character 
#Hierarchical Translation and Rotation (.htr) file 
[Header]	
#Header keywords are followed by a single value 
FileType HTR		#Single word string
DataType HTRS		#Translation followed by rotation and scale data
FileVersion 1		#integer
NumSegments 23		#integer
NumFrames 4		#integer
DataFrameRate 30		#integer, data frame rate in this file
EulerRotationOrder ZYX
CalibrationUnits mm
RotationUnits Degrees
GlobalAxisofGravity Y
BoneLengthAxis Y
ScaleFactor 1.00
[SegmentNames&Hierarchy]
#CHILD	PARENT
MASTER GLOBAL
weapon MASTER
arm_lock_bottom_part1 weapon
arm_lock_bottom_part2 weapon
arm_lock_bottom_part3 weapon
arm_lock_bottom_part4 weapon
arm_lock_top_part1 weapon
arm_lock_top_part2 weapon
arm_lock_top_part3 weapon
front_lower_left_part1 weapon
front_lower_right_part1 weapon
front_top_left_part weapon
front_top_right_part1 weapon
scope_part1 weapon
scope_part2 weapon
front_lower_left_part2 front_lower_left_part1
front_lower_left_part3 front_lower_left_part2
front_lower_right_part2 front_lower_right_part1
front_lower_right_part3 front_lower_right_part2
front_top_left_part2 front_top_left_part
front_top_left_part3 front_top_left_part2
front_top_right_part2 front_top_right_part1
front_top_right_part3 front_top_right_part2
[BasePosition]
#SegmentName Tx, Ty, Tz, Rx, Ry, Rz, BoneLength
MASTER 0.000000 0.000000 0.000000 -90.000000 0.000000 0.000000 10.000000 
weapon 0.000000 0.000000 0.000000 0.000000 0.000000 0.000000 10.000000 
arm_lock_bottom_part1 0.000000 0.000000 0.000000 0.000000 0.000000 0.000000 10.000000 
arm_lock_bottom_part2 0.000000 0.000000 0.000000 0.000000 0.000000 0.000000 10.000000 
arm_lock_bottom_part3 0.000000 0.000000 0.000000 0.000000 0.000000 0.000000 10.000000 
arm_lock_bottom_part4 0.000000 0.000000 0.000000 0.000000 0.000000 0.000000 10.000000 
arm_lock_top_part1 0.000000 0.000000 0.000000 0.000000 0.000000 0.000000 10.000000 
arm_lock_top_part2 0.000000 0.000000 0.000000 0.000000 0.000000 0.000000 10.000000 
arm_lock_top_part3 0.000000 0.000000 0.000000 0.000000 0.000000 0.000000 10.000000 
front_lower_left_part1 0.000000 0.000000 0.000000 0.000000 0.000000 0.000000 10.000000 
front_lower_right_part1 0.000000 0.000000 0.000000 0.000000 0.000000 0.000000 10.000000 
front_top_left_part 0.000000 0.000000 0.000000 0.000000 0.000000 0.000000 10.000000 
front_top_right_part1 0.000000 0.000000 0.000000 0.000000 0.000000 0.000000 10.000000 
scope_part1 0.000000 0.000000 0.000000 0.000000 0.000000 0.000000 10.000000 
scope_part2 0.000000 0.000000 0.000000 0.000000 0.000000 0.000000 10.000000 
front_lower_left_part2 0.000000 0.000000 0.000000 0.000000 0.000000 0.000000 10.000000 
front_lower_left_part3 0.000000 0.000000 0.000000 0.000000 0.000000 0.000000 10.000000 
front_lower_right_part2 0.000000 0.000000 0.000000 0.000000 0.000000 0.000000 10.000000 
front_lower_right_part3 0.000000 0.000000 0.000000 0.000000 0.000000 0.000000 10.000000 
front_top_left_part2 0.000000 0.000000 0.000000 0.000000 0.000000 0.000000 10.000000 
front_top_left_part3 0.000000 0.000000 0.000000 0.000000 0.000000 0.000000 10.000000 
front_top_right_part2 0.000000 0.000000 0.000000 0.000000 0.000000 0.000000 10.000000 
front_top_right_part3 0.000000 0.000000 0.000000 0.000000 0.000000 0.000000 10.000000 
#Beginning of Data. Separated by tabs
#Fr	Tx	Ty	Tz	Rx	Ry	Rz	SF
[MASTER]
85 0.000000 -0.000019 0.000002 0.002458 -0.000000 0.000000 0.000019
86 0.000000 -0.000019 0.000002 0.002458 -0.000000 0.000000 0.000019
87 0.000000 -0.000019 0.000002 0.002458 -0.000000 0.000000 0.000019
88 0.000000 -0.000019 0.000002 0.002458 -0.000000 0.000000 0.000019
[weapon]
85 10.182457 -168.977844 -13.084106 -0.002473 -0.000000 -0.000020 169.789246
86 10.182457 -168.977844 -13.084106 -0.002473 -0.000000 -0.000020 169.789246
87 10.182457 -168.977844 -13.084106 -0.002473 -0.000000 -0.000020 169.789246
88 10.182457 -168.977844 -13.084106 -0.002473 -0.000000 -0.000020 169.789246
[arm_lock_bottom_part1]
85 -48.820000 98.566208 -83.498993 179.999985 0.000004 9.388626 138.096970
86 -48.820000 98.566208 -83.498993 179.999985 0.000004 9.388626 138.096970
87 -48.820000 98.566208 -83.498993 179.999985 0.000004 9.388626 138.096970
88 -48.820000 98.566208 -83.498993 179.999985 0.000004 9.388626 138.096970
[arm_lock_bottom_part2]
85 -49.022766 58.782005 -78.526535 -179.999985 -0.000001 6.576765 109.658440
86 -49.022766 58.782005 -78.526535 -179.999985 -0.000001 6.576765 109.658440
87 -49.022766 58.782005 -78.526535 -179.999985 -0.000001 6.576765 109.658440
88 -49.022766 58.782005 -78.526535 -179.999985 -0.000001 6.576765 109.658440
[arm_lock_bottom_part3]
85 -51.266422 -16.798210 -66.920395 -179.999985 -0.000001 4.326176 85.957924
86 -51.266422 -16.798210 -66.920395 -179.999985 -0.000001 4.326176 85.957924
87 -51.266422 -16.798210 -66.920395 -179.999985 -0.000001 4.326176 85.957924
88 -51.266422 -16.798210 -66.920395 -179.999985 -0.000001 4.326176 85.957924
[arm_lock_bottom_part4]
85 -40.078102 -93.503113 -59.330063 -179.999985 -0.000000 1.322129 117.767326
86 -40.078102 -93.503113 -59.330063 -179.999985 -0.000000 1.322129 117.767326
87 -40.078102 -93.503113 -59.330063 -179.999985 -0.000000 1.322129 117.767326
88 -40.078102 -93.503113 -59.330063 -179.999985 -0.000000 1.322129 117.767326
[arm_lock_top_part1]
85 -47.532558 61.554489 78.379364 0.000000 -0.000000 -9.999999 110.415680
86 -47.532558 61.554489 78.379364 0.000000 -0.000000 -9.999999 110.415680
87 -47.532558 61.554489 78.379364 0.000000 -0.000000 -9.999999 110.415680
88 -47.532558 61.554489 78.379364 0.000000 -0.000000 -9.999999 110.415680
[arm_lock_top_part2]
85 -45.622673 13.709908 63.393555 0.000000 -0.000000 -7.722126 79.297745
86 -45.622673 13.709908 63.393555 0.000000 -0.000000 -7.722126 79.297745
87 -45.622673 13.709908 63.393555 0.000000 -0.000000 -7.722126 79.297745
88 -45.622673 13.709908 63.393555 0.000000 -0.000000 -7.722126 79.297745
[arm_lock_top_part3]
85 -43.788544 -73.747208 72.061615 0.000000 0.000000 -4.533067 112.022163
86 -43.788544 -73.747208 72.061615 0.000000 0.000000 -4.533067 112.022163
87 -43.788544 -73.747208 72.061615 0.000000 0.000000 -4.533067 112.022163
88 -43.788544 -73.747208 72.061615 0.000000 0.000000 -4.533067 112.022163
[front_lower_left_part1]
85 -46.798534 475.071045 -43.538895 -17.980034 0.000051 32.194077 479.351898
86 -46.798534 475.071045 -43.538895 -17.980034 0.000051 32.194077 479.351898
87 -46.798534 475.071045 -43.538895 -17.980034 0.000051 32.194077 479.351898
88 -46.798534 475.071045 -43.538895 -17.980034 0.000051 32.194077 479.351898
[front_lower_right_part1]
85 26.433468 475.070984 -43.538742 -17.167982 -0.000012 -27.317894 477.793671
86 26.433468 475.070984 -43.538742 -17.167982 -0.000012 -27.317894 477.793671
87 26.433468 475.070984 -43.538742 -17.167982 -0.000012 -27.317894 477.793671
88 26.433468 475.070984 -43.538742 -17.167982 -0.000012 -27.317894 477.793671
[front_top_left_part]
85 -47.897224 494.788910 7.030945 -0.000000 0.000003 -0.000001 497.151520
86 -47.897224 494.788910 7.030945 -0.000000 0.000003 -0.000001 497.151520
87 -47.897224 494.788910 7.030945 -0.000000 0.000003 -0.000001 497.151520
88 -47.897224 494.788910 7.030945 -0.000000 0.000003 -0.000001 497.151520
[front_top_right_part1]
85 27.532139 494.788910 7.031097 0.000000 -0.000000 -0.000000 495.604218
86 27.532139 494.788910 7.031097 0.000000 -0.000000 -0.000000 495.604218
87 27.532139 494.788910 7.031097 0.000000 -0.000000 -0.000000 495.604218
88 27.532139 494.788910 7.031097 0.000000 -0.000000 -0.000000 495.604218
[scope_part1]
85 -10.754299 87.338936 156.453094 -5.091287 -15.549091 1.368176 179.502960
86 -10.754299 87.338936 156.453094 -5.092189 -15.586335 1.371576 179.502960
87 -10.754299 87.338936 156.453094 -5.093004 -15.617601 1.374538 179.502960
88 -10.754299 87.338936 156.453094 -5.093616 -15.642483 1.376860 179.502960
[scope_part2]
85 -10.754299 82.597351 156.859894 -5.706264 30.700260 -2.920438 177.603500
86 -10.754299 82.597351 156.859894 -5.708826 30.743290 -2.925357 177.603500
87 -10.754299 82.597351 156.859894 -5.711015 30.779381 -2.929617 177.603500
88 -10.754299 82.597351 156.859894 -5.712683 30.808128 -2.932998 177.603500
[front_lower_left_part2]
85 -55.193634 141.618408 32.268219 0.000000 -0.000000 15.264688 155.381317
86 -55.193634 141.618408 32.268219 0.000000 -0.000000 15.296180 155.381317
87 -55.193634 141.618408 32.268219 0.000000 -0.000000 15.322691 155.381317
88 -55.193634 141.618408 32.268219 0.000000 -0.000000 15.343745 155.381317
[front_lower_left_part3]
85 -10.943755 108.509483 -11.124877 35.668346 -8.789167 -24.200581 109.625893
86 -10.943831 108.509445 -11.124877 35.661953 -8.818742 -24.158909 109.625862
87 -10.943755 108.509407 -11.124877 35.656567 -8.843729 -24.123636 109.625816
88 -10.943909 108.509331 -11.124877 35.652218 -8.863663 -24.095425 109.625755
[front_lower_right_part2]
85 55.193668 141.618195 32.268372 0.000000 0.000000 -18.965208 155.381149
86 55.193668 141.618195 32.268372 0.000000 0.000000 -18.986044 155.381149
87 55.193668 141.618195 32.268372 0.000000 0.000000 -19.003592 155.381149
88 55.193668 141.618195 32.268372 0.000000 0.000000 -19.017538 155.381149
[front_lower_right_part3]
85 10.943831 108.509445 -11.124725 35.217827 10.660288 21.534107 109.625847
86 10.943890 108.509407 -11.124725 35.211884 10.682533 21.502035 109.625816
87 10.943870 108.509407 -11.124877 35.207211 10.699970 21.476797 109.625832
88 10.943813 108.509445 -11.124725 35.203461 10.714018 21.456514 109.625847
[front_top_left_part2]
85 -88.184517 137.390213 57.346497 9.860282 0.373967 20.134775 173.035248
86 -88.235268 137.390137 57.349396 9.860475 0.370055 20.157122 173.062027
87 -88.277657 137.389984 57.351681 9.860644 0.366847 20.175756 173.084274
88 -88.311310 137.389893 57.353516 9.860779 0.364299 20.190502 173.101990
[front_top_left_part3]
85 -28.216400 149.656906 49.959717 -26.073038 -1.623476 -61.850525 160.278900
86 -28.216438 149.656830 49.959641 -26.073858 -1.609408 -61.821709 160.278824
87 -28.216515 149.656662 49.959564 -26.074558 -1.597588 -61.797577 160.278656
88 -28.216362 149.656906 49.959641 -26.075041 -1.588047 -61.778111 160.278870
[front_top_right_part2]
85 82.054024 137.572556 52.669067 8.054699 1.209331 -23.275341 168.621185
86 82.099731 137.572708 52.666470 8.054307 1.212886 -23.300413 168.642731
87 82.137939 137.572784 52.664337 8.053847 1.215890 -23.321245 168.660736
88 82.168274 137.572861 52.662807 8.053594 1.218225 -23.337862 168.675095
[front_top_right_part3]
85 28.216520 149.656906 49.959564 -25.954149 3.046908 64.768875 160.278885
86 28.216484 149.657059 49.959564 -25.955473 3.034644 64.743752 160.279022
87 28.216499 149.657059 49.959488 -25.956598 3.024283 64.722351 160.278992
88 28.216438 149.656982 49.959717 -25.957506 3.016016 64.705383 160.278976
